<svg width="392" height="344" version="1.1" xmlns="http://www.w3.org/2000/svg" desc="Created with imagetracer.js version 1.2.6" ><path fill="rgb(247,243,242)" stroke="rgb(247,243,242)" stroke-width="1" opacity="0.050980392156862744" d="M 180.5 37 L 209.5 37 L 215.5 39 L 217.5 38 L 237.5 43 L 263.5 55 Q 284.5 68 300 86.5 L 300 89.5 L 290.5 99 L 287.5 99 L 282 93.5 L 278.5 89 L 276 87.5 L 274.5 85 Q 255.7 67.8 228.5 59 L 215.5 56 L 178.5 56 L 171 57.5 L 207 114 Q 210 112.8 209 116.5 L 215 127 L 218 128.5 L 232 151.5 L 230.5 153 L 218 153 Q 219 156 216 155 L 215.5 153 L 159.5 153 L 156.5 154 L 155.5 153 L 130.5 153 L 127 149.5 L 104 114.5 L 100 106 L 97 104.5 L 96 100.5 L 88 88.5 L 98.5 76 L 113.5 63 L 125.5 55 L 158.5 41 L 160.5 41 L 180.5 37 Z M 185 38 L 158 43 L 142 49 Q 118 59 102 75 L 90 88 L 96 100 L 129 150 L 132 152 L 230 152 L 224 141 L 169 56 L 181 54 L 190 54 L 191 53 L 211 54 L 226 57 L 241 62 Q 270 75 289 98 L 299 89 L 293 81 Q 272 58 242 46 L 214 39 L 185 38 Z " /><path fill="rgb(247,243,242)" stroke="rgb(247,243,242)" stroke-width="1" opacity="0.050980392156862744" d="M 156 161 L 159 162.5 L 159.5 164 L 216 164 Q 214.7 159.9 218 161 L 219.5 164 L 275.5 164 L 277.5 163 L 278.5 164 L 335.5 164 L 337.5 163 L 338.5 164 L 373 164 L 373 173.5 Q 375.8 172.9 375 176 L 373 176 L 373 181.5 L 372.5 182 L 338.5 182 L 336 183.5 L 335.5 182 L 278.5 182 L 276 183.5 L 275.5 182 L 252.5 182 L 254 184.5 L 274 214.5 L 275 218 Q 277.7 216.9 277 219.5 L 301 255.5 L 301 258.5 L 286.5 274 L 278 280.5 Q 278.8 283.1 275.5 282 L 261.5 292 L 259 292 Q 260.1 294.7 257.5 294 L 244.5 300 L 229.5 304 L 223.5 296 Q 220.9 296.8 222 293.5 L 218.5 288 L 217 288.5 L 215 282.5 L 185 236 L 182 234.5 Q 184.5 233 181 231.5 L 159.5 198 Q 156.2 199.1 157 196.5 Q 154.9 187.1 148.5 182 L 139 182.5 L 155 208 Q 158.8 206.5 158 209.5 L 160 215.5 L 172.5 234 Q 175.1 233.2 174 236.5 L 212 293.5 L 215 300 L 218 301.5 L 219 305.5 L 218 308 L 213.5 307 Q 212 309.5 206.5 308 L 206.5 307 L 217 306 L 217 303.5 L 137 181 L 149.5 181 L 152 183.5 L 217 284.5 L 230.5 303 Q 248.6 298.6 262.5 290 L 277.5 280 L 296 262.5 L 300 256.5 L 252 184.5 L 251 181 L 371.5 181 Q 372.6 180.9 372 175.5 L 372 173.5 L 372 165.5 L 371.5 165 L 17 165 L 17 180.5 L 17.5 181 L 116.5 181 L 140 214.5 L 189 289.5 L 190 293 L 167.5 290 L 148.5 284 Q 120.8 272.2 103 250.5 L 101.5 248 L 97 250.5 L 91 257.5 L 91 259.5 L 98.5 268 Q 124.7 296.3 170 305.5 L 165.5 306 Q 162.6 303.4 156.5 304 L 132.5 295 L 112.5 282 L 96 267.5 L 89 259.5 L 89 257.5 L 96 250.5 L 97 245 Q 99.7 243.9 99 246.5 L 100.5 246 L 111 256.5 L 113.5 260 Q 129.4 275.1 151.5 284 L 158.5 285 L 160.5 287 L 173.5 290 L 187.5 291 L 186 288.5 L 157 244.5 L 153 236 Q 150 237.3 151 233.5 L 117 182 L 99.5 182 L 96.5 183 L 95.5 182 L 39 182 Q 40 185 37 184 L 36.5 182 L 16 182 L 16 176.5 L 15 174.5 L 16 173.5 L 16 165.5 L 17.5 164 L 36.5 164 L 38.5 163 L 39.5 164 L 96.5 164 L 98.5 163 L 99.5 164 L 156 164 L 156 161 Z " /><path fill="rgb(247,243,242)" stroke="rgb(247,243,242)" stroke-width="1" opacity="0.050980392156862744" d="M 171.5 306 L 176 306.5 L 171.5 307 L 171.5 306 Z " /><path fill="rgb(247,243,242)" stroke="rgb(247,243,242)" stroke-width="1" opacity="0.050980392156862744" d="M 177.5 307 L 185 307.5 L 177.5 308 L 177.5 307 Z " /><path fill="rgb(247,243,242)" stroke="rgb(247,243,242)" stroke-width="1" opacity="0.050980392156862744" d="M 188.5 308 L 201 308.5 L 188.5 309 L 188.5 308 Z " /><path fill="rgb(0,0,0)" stroke="rgb(0,0,0)" stroke-width="1" opacity="0" d="M 0 0 L 392 0 L 392 344 L 0 344 L 0 0 Z M 181 37 L 161 41 L 159 41 L 126 55 L 114 63 L 99 76 L 88 89 L 96 101 L 97 105 L 100 106 L 104 115 L 127 150 L 131 153 L 156 153 L 157 154 L 160 153 L 216 153 L 216 155 Q 219 156 218 153 L 231 153 L 232 152 L 218 129 L 215 127 L 209 117 Q 210 113 207 114 L 171 58 L 179 56 L 216 56 L 229 59 Q 256 68 275 85 L 276 88 L 279 89 L 282 94 L 288 99 L 291 99 L 300 90 L 300 87 Q 284 68 264 55 L 238 43 L 218 38 L 216 39 L 210 37 L 181 37 Z M 156 161 L 156 164 L 100 164 L 99 163 L 97 164 L 40 164 L 39 163 L 37 164 L 18 164 L 16 166 L 16 174 L 15 175 L 16 177 L 16 182 L 37 182 L 37 184 Q 40 185 39 182 L 96 182 L 97 183 L 100 182 L 117 182 L 151 234 Q 150 237 153 236 L 157 245 L 186 289 L 188 291 L 174 290 L 161 287 L 159 285 L 152 284 Q 129 275 114 260 L 111 257 L 101 246 L 99 247 Q 100 244 97 245 L 96 251 L 89 258 L 89 260 L 96 268 L 113 282 L 135 296 L 138 296 L 157 304 L 178 308 L 188 308 L 189 309 L 201 309 L 202 308 L 213 308 L 214 307 L 218 308 L 219 306 L 218 302 L 215 300 L 212 294 L 174 237 Q 175 233 173 234 L 160 216 L 158 210 Q 159 207 155 208 L 139 183 L 149 182 Q 155 187 157 197 Q 156 199 160 198 L 181 232 Q 184 233 182 235 L 185 236 L 215 283 L 217 289 L 219 288 L 222 294 Q 221 297 224 296 L 230 304 L 245 300 L 258 294 Q 260 295 259 292 L 262 292 L 276 282 Q 279 283 278 281 L 287 274 L 301 259 L 301 256 L 277 220 Q 278 217 275 218 L 274 215 L 254 185 L 253 182 L 276 182 L 276 184 L 279 182 L 336 182 L 336 184 L 339 182 L 373 182 L 373 182 L 373 176 L 375 176 Q 376 173 373 174 L 373 164 L 339 164 L 338 163 L 336 164 L 279 164 L 278 163 L 276 164 L 220 164 L 218 161 Q 215 160 216 164 L 160 164 L 159 163 L 156 161 Z " /><path fill="rgb(141,119,94)" stroke="rgb(141,119,94)" stroke-width="1" opacity="0.6784313725490196" d="M 184.5 38 L 213.5 39 L 232 43.5 L 229.5 44 L 213.5 40 L 184.5 39 L 183.5 40 L 165.5 42 L 144.5 49 L 144.5 48 L 157.5 43 L 184.5 38 Z " /><path fill="rgb(141,119,94)" stroke="rgb(141,119,94)" stroke-width="1" opacity="0.6784313725490196" d="M 233.5 44 L 241.5 46 L 262.5 56 Q 279.6 66.4 293 80.5 L 299 88.5 L 288.5 98 Q 270.2 74.8 241 62.5 L 242.5 62 L 262.5 73 L 281 88 L 282.5 91 Q 284.8 90.3 284 92.5 L 289.5 97 L 298 87.5 L 274.5 65 L 260.5 56 L 241.5 47 L 233.5 45 L 233.5 44 Z " /><path fill="rgb(141,119,94)" stroke="rgb(141,119,94)" stroke-width="1" opacity="0.6784313725490196" d="M 141.5 49 L 143 49.5 L 135.5 53 L 135.5 52 L 141.5 49 Z " /><path fill="rgb(141,119,94)" stroke="rgb(141,119,94)" stroke-width="1" opacity="0.6784313725490196" d="M 133.5 53 L 132.5 55 L 128.5 56 L 117.5 63 L 97 80.5 L 91 89.5 L 131.5 151 L 229 150.5 L 171 62.5 L 168 55 L 180.5 53 L 189.5 53 L 189.5 54 L 180.5 54 L 169 56 L 224 140.5 L 230 152 L 131.5 152 L 129 149.5 L 96 99.5 L 90 87.5 L 101.5 75 Q 115.1 61.6 133.5 53 Z " /><path fill="rgb(141,119,94)" stroke="rgb(141,119,94)" stroke-width="1" opacity="0.6784313725490196" d="M 199.5 53 L 210 53.5 L 199.5 54 L 199.5 53 Z " /><path fill="rgb(141,119,94)" stroke="rgb(141,119,94)" stroke-width="1" opacity="0.6784313725490196" d="M 211.5 54 L 221 55.5 L 216.5 56 L 211.5 55 L 211.5 54 Z " /><path fill="rgb(141,119,94)" stroke="rgb(141,119,94)" stroke-width="1" opacity="0.6784313725490196" d="M 222.5 56 L 225 56.5 L 222.5 57 L 222.5 56 Z " /><path fill="rgb(141,119,94)" stroke="rgb(141,119,94)" stroke-width="1" opacity="0.6784313725490196" d="M 226.5 57 L 240 61.5 L 238.5 62 L 226.5 58 L 226.5 57 Z " /><path fill="rgb(141,119,94)" stroke="rgb(141,119,94)" stroke-width="1" opacity="0.6784313725490196" d="M 17.5 165 L 18 180.5 L 17 180.5 L 17.5 165 Z " /><path fill="rgb(141,119,94)" stroke="rgb(141,119,94)" stroke-width="1" opacity="0.6784313725490196" d="M 371.5 165 L 372 173.5 L 373 174.5 L 371.5 181 L 371.5 165 Z " /><path fill="rgb(141,119,94)" stroke="rgb(141,119,94)" stroke-width="1" opacity="0.6784313725490196" d="M 117.5 181 L 120 182.5 L 157 239.5 L 155 238.5 L 117.5 181 Z " /><path fill="rgb(141,119,94)" stroke="rgb(141,119,94)" stroke-width="1" opacity="0.6784313725490196" d="M 136.5 181 L 217 303.5 L 217 306 L 214 305.5 L 216 304.5 L 143 193.5 L 136 182.5 L 136.5 181 Z " /><path fill="rgb(141,119,94)" stroke="rgb(141,119,94)" stroke-width="1" opacity="0.6784313725490196" d="M 150.5 181 L 230.5 302 Q 256 295.5 273.5 281 L 271.5 284 Q 254.6 297.1 230.5 303 L 217 284.5 L 150.5 181 Z " /><path fill="rgb(141,119,94)" stroke="rgb(141,119,94)" stroke-width="1" opacity="0.6784313725490196" d="M 250.5 181 L 275 218.5 L 273 217.5 L 251 184.5 L 250.5 181 Z " /><path fill="rgb(141,119,94)" stroke="rgb(141,119,94)" stroke-width="1" opacity="0.6784313725490196" d="M 275.5 220 L 296 250.5 L 294 249.5 L 275.5 220 Z " /><path fill="rgb(141,119,94)" stroke="rgb(141,119,94)" stroke-width="1" opacity="0.6784313725490196" d="M 157.5 241 L 191 292.5 L 188.5 294 L 188.5 293 Q 190.8 293.8 190 291.5 L 158 243.5 L 157.5 241 Z " /><path fill="rgb(141,119,94)" stroke="rgb(141,119,94)" stroke-width="1" opacity="0.6784313725490196" d="M 100.5 248 L 103 249.5 L 118.5 266 Q 130.5 276 146 282.5 L 144.5 283 L 123.5 271 L 110 260 L 110 258.5 L 100.5 249 L 92 258.5 L 108.5 276 Q 129.4 294.1 160 302.5 L 157.5 303 Q 119.6 291.4 96 265.5 L 91 259.5 L 91 257.5 L 98.5 249 L 100.5 248 Z " /><path fill="rgb(141,119,94)" stroke="rgb(141,119,94)" stroke-width="1" opacity="0.6784313725490196" d="M 296.5 252 L 300 257.5 L 284.5 274 L 275.5 281 L 278.5 277 L 294 263.5 L 299 256.5 L 296.5 252 Z " /><path fill="rgb(141,119,94)" stroke="rgb(141,119,94)" stroke-width="1" opacity="0.6784313725490196" d="M 149.5 284 Q 161.4 289.6 177 291.5 L 172.5 292 L 151.5 286 L 149.5 284 Z " /><path fill="rgb(141,119,94)" stroke="rgb(141,119,94)" stroke-width="1" opacity="0.6784313725490196" d="M 178.5 292 L 187 292.5 L 178.5 293 L 178.5 292 Z " /><path fill="rgb(141,119,94)" stroke="rgb(141,119,94)" stroke-width="1" opacity="0.6784313725490196" d="M 161.5 303 L 184 306.5 L 176.5 307 L 161.5 304 L 161.5 303 Z " /><path fill="rgb(141,119,94)" stroke="rgb(141,119,94)" stroke-width="1" opacity="0.6784313725490196" d="M 207.5 306 L 213 306.5 L 207.5 307 L 207.5 306 Z " /><path fill="rgb(141,119,94)" stroke="rgb(141,119,94)" stroke-width="1" opacity="0.6784313725490196" d="M 185.5 307 L 206 307.5 L 185.5 308 L 185.5 307 Z " /><path fill="rgb(88,53,17)" stroke="rgb(88,53,17)" stroke-width="1" opacity="0.996078431372549" d="M 184 39 L 202.5 39 L 203.5 40 L 214 40.5 L 211.5 42 L 191.5 42 L 190.5 43 L 185.5 42 L 183.5 44 L 179.5 42 L 177.5 44 Q 175.3 44.8 176 42.5 L 178 42.5 Q 178.8 40.3 176.5 41 L 176.5 40 Q 182 38.5 183.5 41 L 184 39 Z " /><path fill="rgb(88,53,17)" stroke="rgb(88,53,17)" stroke-width="1" opacity="0.996078431372549" d="M 170.5 41 Q 176.8 38.8 175 44.5 L 172.5 46 L 169.5 44 L 167.5 46 L 165 44.5 L 167 47.5 L 164 47.5 L 164 45.5 L 163.5 44 L 161 45 Q 159.7 41.7 164.5 43 L 168.5 42 L 171.5 43 L 171.5 42 L 170.5 41 Z M 167 43 L 168 45 Q 169 42 167 43 Z " /><path fill="rgb(88,53,17)" stroke="rgb(88,53,17)" stroke-width="1" opacity="0.996078431372549" d="M 215 41 L 220 41.5 L 215 43 L 215 41 Z " /><path fill="rgb(88,53,17)" stroke="rgb(88,53,17)" stroke-width="1" opacity="0.996078431372549" d="M 222.5 42 Q 271.4 53.6 298 87.5 L 289.5 97 L 284 92.5 Q 284.8 90.3 282.5 91 L 281 88 L 254.5 68 Q 238.3 58.2 216 54.5 L 217 52 Q 220 51 219 54 L 221.5 54 L 227 52 Q 228.3 55 224.5 54 L 224.5 55 L 230.5 57 L 232.5 56 L 236 56.5 Q 235.1 53.5 239.5 55 L 241 51.5 L 240.5 50 L 244.5 51 L 243.5 49 L 240.5 48 L 238 49.5 L 239 47.5 L 237.5 47 L 234.5 48 Q 233 44.5 231.5 47 L 229.5 48 L 227 47 L 226.5 45 L 225.5 48 L 224.5 45 Q 222.3 45.8 223 43.5 L 222.5 42 Z M 250 52 L 243 56 L 240 56 L 240 58 L 239 60 L 246 62 L 249 62 Q 248 64 251 63 L 251 65 L 255 67 Q 254 69 257 68 L 259 68 L 259 70 L 263 72 L 266 71 L 268 70 L 266 73 L 270 72 L 272 76 L 270 76 Q 269 78 272 77 L 275 81 Q 277 82 276 79 Q 277 76 281 77 L 282 75 L 285 76 L 285 75 L 282 73 L 280 74 L 281 72 L 280 72 L 279 70 L 278 72 L 277 72 L 278 70 L 276 69 L 275 66 L 273 67 L 276 71 L 276 72 L 275 70 L 274 72 L 272 70 Q 268 71 269 69 L 269 67 L 272 68 L 272 66 Q 273 63 271 64 L 268 66 Q 269 63 267 64 L 267 66 L 264 65 L 265 62 L 264 59 L 259 56 Q 254 54 255 58 L 258 59 Q 261 61 258 62 L 256 61 Q 254 58 252 60 L 255 56 L 255 54 L 251 56 L 251 55 Q 254 56 253 53 L 251 54 L 250 52 Z M 239 57 L 237 59 L 239 59 L 239 57 Z M 267 61 L 265 64 L 267 63 L 267 61 Z M 272 68 Q 271 71 274 70 Q 275 67 272 68 Z M 269 73 L 270 75 Q 271 72 269 73 Z M 282 77 Q 279 78 281 80 L 280 82 L 279 80 L 278 83 L 278 85 L 280 85 L 283 89 L 285 88 L 287 89 Q 286 91 285 89 L 283 90 L 288 92 L 287 91 L 290 89 L 294 91 L 295 89 L 295 86 L 294 88 L 292 89 L 293 87 L 291 85 L 289 84 L 291 81 L 288 83 L 289 86 L 288 86 L 286 84 L 282 81 L 283 78 L 283 80 L 285 79 L 282 77 Z M 287 78 L 285 80 L 289 81 L 287 78 Z M 292 91 Q 290 94 289 92 L 287 93 L 287 94 Q 291 95 292 93 L 292 91 Z " /><path fill="rgb(88,53,17)" stroke="rgb(88,53,17)" stroke-width="1" opacity="0.996078431372549" d="M 157.5 44 L 160 44.5 L 159.5 46 L 163 46.5 L 157.5 48 L 158 46.5 L 157.5 45 L 154.5 48 L 153.5 47 Q 149.5 46.5 149 49.5 Q 148.2 52.5 152 51 L 152 53 L 147.5 51 L 144 52.5 L 145 54.5 Q 143.3 58.7 141.5 56 L 138.5 55 L 136.5 55 L 134.5 54 L 134 56 Q 136.7 54.9 136 57.5 L 133 55.5 L 134.5 53 L 157.5 44 Z M 142 51 L 142 53 L 144 52 L 142 51 Z M 142 53 L 140 55 L 142 55 L 142 53 Z " /><path fill="rgb(88,53,17)" stroke="rgb(88,53,17)" stroke-width="1" opacity="0.996078431372549" d="M 208.5 45 L 219.5 47 L 223 46.5 Q 221.8 49 218 48 Q 219.7 52.1 215.5 51 L 201.5 48 L 201.5 49 L 204 50.5 L 198.5 51 L 198.5 50 L 200 49.5 L 197.5 48 L 194.5 49 L 192 49.5 L 196.5 52 L 213.5 52 L 215 53.5 L 210.5 54 L 209.5 53 L 180.5 53 Q 179.2 55.3 174.5 54 Q 173.1 51.4 168.5 52 L 168.5 53 L 173 54.5 L 168 55 L 171 62.5 L 224 142.5 L 222.5 142 Q 219.2 140.9 220 143.5 L 219 143.5 L 220 141.5 L 218.5 141 L 216.5 144 L 216 142.5 L 216.5 139 Q 213.2 140.1 214 137.5 L 213 134.5 L 215 131.5 L 212.5 128 L 210 129.5 L 212 126.5 L 210 125.5 L 209.5 127 L 209 125.5 L 210 123.5 L 208 123.5 L 209 121.5 L 207.5 119 L 206 119.5 L 206.5 118 L 202.5 120 Q 199 118.7 200 114 L 202 113.5 Q 198.9 111.8 200.5 110 Q 198.3 110.8 199 108.5 L 196.5 108 Q 193.5 108.9 195 104.5 L 194 102 L 192 101.5 L 195 99.5 L 193.5 99 Q 192.3 101.2 191 98.5 L 190 95.5 L 191 93.5 L 188.5 90 Q 189.1 94.6 186.5 96 L 185 95.5 L 186 92.5 L 185 92.5 L 184.5 94 L 184 87 L 186 86.5 L 180 84 Q 181.3 80.7 176.5 82 L 177 80.5 L 176 78.5 L 178.5 78 L 180 77.5 L 175 74.5 L 176 70.5 L 174 69.5 L 175 71.5 L 171 68.5 L 172 64.5 L 168 63.5 L 169 61 L 166 59.5 Q 163.3 57.2 164 51.5 L 162 49.5 L 164.5 49 L 168.5 48 L 168.5 50 L 173.5 52 L 175.5 52 L 187.5 51 L 192.5 52 L 191.5 50 Q 189.3 50.8 190 48.5 L 186.5 49 L 176 48 L 176.5 46 L 207.5 46 L 208.5 45 Z M 182 80 L 181 82 L 183 83 L 182 80 Z M 203 114 L 205 118 L 205 116 L 203 114 Z M 202 115 L 202 119 L 203 119 L 202 115 Z M 219 138 L 220 140 Q 221 137 219 138 Z " /><path fill="rgb(88,53,17)" stroke="rgb(88,53,17)" stroke-width="1" opacity="0.996078431372549" d="M 174.5 49 L 177 49.5 L 174.5 50 L 174.5 49 Z " /><path fill="rgb(88,53,17)" stroke="rgb(88,53,17)" stroke-width="1" opacity="0.996078431372549" d="M 130.5 55 L 132 55.5 L 128 57 L 127 59.5 L 128 62 L 126 61.5 L 126.5 60 L 124 60.5 L 124.5 62 L 122.5 61 L 123.5 64 L 121 63.5 L 121.5 62 L 116 65.5 L 117.5 66 L 119.5 65 L 119.5 66 L 115.5 69 L 113 69 Q 114.1 71.7 111.5 71 L 111.5 72 L 113 72.5 L 110.5 74 L 107.5 72 L 106.5 74 L 109 75.5 Q 110.3 80.1 104.5 78 Q 103.3 75.8 102 78.5 L 102.5 80 L 100.5 79 L 95 84.5 L 95.5 86 L 94 85.5 L 96 90.5 L 96 94.5 Q 95.3 96.8 97.5 96 L 97.5 98 L 102.5 96 L 103.5 98 L 101.5 98 L 100 98.5 L 104 99.5 L 101 100.5 L 104 101.5 L 102 102.5 L 104 103.5 L 102 104.5 L 106.5 111 L 110 112.5 L 110 114.5 Q 108.9 117.8 111.5 117 L 112 119.5 L 112.5 121 L 114.5 120 L 114.5 121 L 113 121.5 L 116 122 L 116.5 120 L 120 121.5 L 118 121.5 L 120 125.5 L 119 125.5 L 117.5 123 L 116 125.5 L 119 127.5 L 118 129.5 L 120 129.5 L 119.5 131 L 123 133.5 L 123 137 L 126 137 L 126 139 Q 128.7 137.9 128 140.5 L 127 142.5 Q 129 146.2 131 144.5 L 130.5 146 L 134.5 144 L 137.5 148 L 142.5 147 L 143.5 149 L 132 149.5 L 149 150.5 L 131.5 151 L 91 88.5 L 98.5 79 Q 112.5 65 130.5 55 Z M 94 87 Q 91 92 95 91 L 94 87 Z " /><path fill="rgb(88,53,17)" stroke="rgb(88,53,17)" stroke-width="1" opacity="0.996078431372549" d="M 148.5 55 L 152 55.5 L 148.5 56 L 148.5 55 Z " /><path fill="rgb(88,53,17)" stroke="rgb(88,53,17)" stroke-width="1" opacity="0.996078431372549" d="M 132 62 L 136 63.5 L 132 64 L 132 62 Z " /><path fill="rgb(88,53,17)" stroke="rgb(88,53,17)" stroke-width="1" opacity="0.996078431372549" d="M 259.5 62 L 263 63 L 262.5 65 L 259 64 L 259.5 62 Z " /><path fill="rgb(88,53,17)" stroke="rgb(88,53,17)" stroke-width="1" opacity="0.996078431372549" d="M 175 93 Q 180.2 90.9 179 95.5 L 176.5 97 L 175 93 Z " /><path fill="rgb(88,53,17)" stroke="rgb(88,53,17)" stroke-width="1" opacity="0.996078431372549" d="M 192.5 106 Q 194.9 108.3 194 113 L 196 113.5 L 194 114.5 L 194.5 116 Q 191.2 117.1 192 114.5 L 192.5 113 Q 189.5 113.9 191 109.5 L 192.5 106 Z " /><path fill="rgb(88,53,17)" stroke="rgb(88,53,17)" stroke-width="1" opacity="0.996078431372549" d="M 124 128 Q 127 127 126 130 Q 123 131 124 128 Z " /><path fill="rgb(88,53,17)" stroke="rgb(88,53,17)" stroke-width="1" opacity="0.996078431372549" d="M 127.5 132 L 129 134.5 L 127 135.5 L 128 137.5 L 127 137.5 L 126 135.5 L 127.5 132 Z " /><path fill="rgb(88,53,17)" stroke="rgb(88,53,17)" stroke-width="1" opacity="0.996078431372549" d="M 224.5 144 L 228 148.5 L 227.5 150 L 229 150.5 L 219.5 151 L 215.5 149 L 211.5 151 L 195.5 151 L 194.5 150 L 184.5 150 L 183.5 149 L 168.5 149 Q 166.8 151.8 160.5 150 L 158 148.5 L 162.5 146 L 167.5 147 L 183.5 147 L 184 145.5 L 185 145.5 L 184 147.5 L 191.5 148 L 192.5 147 L 207.5 147 L 209.5 148 L 214.5 146 L 216.5 146 L 225 147 L 224.5 144 Z " /><path fill="rgb(88,53,17)" stroke="rgb(88,53,17)" stroke-width="1" opacity="0.996078431372549" d="M 18 165 L 371 165.5 L 371 167.5 L 371 180.5 L 370.5 181 L 250.5 181 L 250 182.5 L 299 257.5 L 284.5 273 Q 268.7 287.2 247.5 296 L 247.5 295 L 249 294.5 L 244 292.5 L 249.5 288 L 252 288.5 L 252.5 290 Q 253.5 287 258.5 288 L 260.5 289 L 262 285 Q 264.7 286.1 264 283.5 L 264.5 281 L 268.5 284 Q 273 282 269.5 280 Q 267.3 279.3 268 281.5 L 267 281.5 L 268 279.5 L 264 278 L 264 274 L 265.5 274 L 269.5 276 Q 273.9 277.5 273 274.5 Q 270.7 273.3 273.5 272 L 275.5 273 L 278.5 271 L 279 273 L 287 270 Q 285.9 267.3 288.5 268 L 289.5 266 L 287.5 267 L 288.5 265 Q 291.5 265.9 290 261.5 L 290.5 260 L 288 260 L 288 253 Q 290.7 251.9 290 254.5 L 290 256.5 L 291.5 260 Q 293.8 260.8 293 258.5 L 297 255.5 L 294 253.5 L 293.5 251 L 290 252 L 292 248.5 L 290 247.5 L 290.5 246 L 288 245.5 L 290 244.5 L 288 243.5 Q 290.5 242 287 240.5 L 285 237.5 L 283 238.5 L 283.5 240 L 281.5 240 Q 279.3 240.8 280 238.5 L 280.5 236 L 282 235.5 L 280 235 L 281 232.5 L 279 228.5 L 278.5 227 L 276.5 228 L 275 225.5 L 276 224.5 L 272.5 220 L 274 219.5 L 272 219 L 270.5 215 L 268 215.5 L 268 218 L 262 218 L 262 212.5 L 264 212 L 264 210.5 L 265 207.5 L 263 205.5 L 262.5 203 Q 261.4 205.8 258 205 Q 259 208 256 207 Q 255 202.8 258 203.5 L 258 198.5 L 256 196.5 Q 257 192 254.5 191 L 252 192.5 L 251.5 191 L 248 191.5 L 248.5 189 L 250 188.5 L 246 186.5 Q 245 180 248.5 178 L 250.5 179 L 252.5 176 L 252 177.5 L 253.5 180 L 256.5 179 L 259.5 180 L 266 178.5 L 264 177.5 L 266 177 Q 264.9 174.3 267.5 175 L 270.5 173 L 272 175.5 L 270 178.5 L 271.5 178 L 273.5 179 L 274 177.5 L 273.5 176 L 275 179 L 290.5 176 L 304.5 176 L 312.5 176 L 313.5 177 L 320 176.5 Q 319.3 174.3 321.5 175 L 325.5 175 L 327.5 176 L 332.5 174 L 334.5 174 L 343 175 L 343.5 177 L 344.5 175 L 345.5 177 L 344 177.5 L 360 178 L 360.5 175 L 361.5 177 L 362.5 175 L 363.5 177 L 364.5 175 L 365.5 177 L 366.5 175 Q 367.8 177.3 369 174.5 L 368 171 L 370 170.5 Q 367 166.3 359 168 Q 360.1 164.7 356 166 L 355.5 168 L 351.5 166 L 351.5 167 L 353 167.5 L 351.5 168 L 349.5 167 L 348 167.5 L 348.5 166 L 343 166.5 L 343.5 168 L 341.5 167 L 342 168.5 L 342 170 L 347 170 L 347 171.5 L 344.5 172 L 334 171.5 L 337 167.5 Q 335.8 165 332 166 Q 333 169 330 168 Q 331.3 164.7 326.5 166 L 326.5 168 L 324.5 168 L 321.5 166 L 321.5 168 L 317.5 166 L 311.5 166 L 287 166.5 L 287.5 168 L 285.5 168 L 283.5 167 L 281.5 168 L 281.5 167 L 283 166.5 L 280 166 L 279.5 168 L 278.5 166 L 277.5 168 L 274.5 166 L 274.5 168 Q 273.3 165.8 272 168.5 L 272 170 L 267 170 L 267 166 L 265.5 166 L 265.5 168 L 260.5 170 L 258.5 170 L 255.5 172 L 255.5 173 L 261 175.5 Q 259.6 178.6 254.5 178 L 256 175.5 L 254.5 173 L 243.5 173 L 242.5 174 L 240.5 173 L 237 174.5 L 237.5 176 Q 234.5 176.7 236 173 Q 241.6 175.2 240 169.5 L 237.5 169 L 236 168.5 L 241 168 L 240.5 166 Q 238.7 168.8 232.5 167 L 229.5 166 L 229.5 167 L 231 167.5 L 229.5 168 L 227.5 168 Q 224.9 167.3 226 170 L 224 170 Q 222.9 167.3 225.5 168 L 228 166.5 L 225.5 166 L 223 166.5 L 222.5 168 L 221.5 166 L 219 167.5 L 219.5 166 L 216.5 168 L 213.5 167 L 211.5 168 L 208.5 166 Q 206.8 168.8 200.5 167 Q 199.3 164.8 194.5 166 L 192.5 167 L 188.5 166 L 183.5 168 L 159.5 168 L 159.5 167 L 184 166.5 L 158 166 L 157.5 168 L 113.5 168 L 113.5 170 L 110.5 172 L 111 170.5 L 110.5 169 L 106.5 171 L 105.5 169 L 104.5 171 L 103.5 169 L 102.5 171 L 101.5 169 L 100.5 171 L 99.5 169 L 98.5 171 L 96.5 166 L 83 166.5 L 83.5 168 L 81.5 166 L 72 166 L 71.5 168 L 69 167.5 L 68.5 166 L 65.5 168 L 60.5 166 L 57.5 168 L 57.5 166 Q 55.3 165.3 56 167.5 L 55 167.5 Q 55.7 164.5 52 166 L 52.5 168 L 54 167.5 Q 52.3 170.8 50.5 167 L 48 168.5 L 50 169.5 L 48.5 172 Q 47 169.5 41.5 171 L 33.5 171 L 30.5 172 L 29.5 170 L 28 170.5 L 27.5 169 L 26.5 171 L 26 167.5 L 26.5 166 L 20 166.5 L 25 167 L 25 171 L 23.5 171 L 21.5 168 L 21 175.5 L 22 178.5 L 21 178.5 L 20.5 176 L 19 179.5 L 23.5 180 L 26 179 L 27.5 176 L 29.5 176 L 32 177.5 L 30 178.5 Q 31.3 181.3 32.5 179 L 34 178.5 L 32 175.5 L 34.5 174 L 37 174.5 L 36 177 L 42 175.5 L 40 174.5 L 43 174 L 43 177 L 39 177 L 39 178.5 L 40.5 178 L 48 177.5 L 46 177 L 46.5 174 L 48.5 177 L 49.5 176 L 60 176 Q 58.9 172.7 63 174 L 63.5 176 L 72 176 Q 73.5 172.3 70.5 173 L 70.5 172 Q 77.3 169.8 75 176.5 L 76.5 176 L 84.5 174 L 92.5 174 L 96 175 L 96.5 177 L 98 176.5 L 98.5 178 L 102.5 176 L 103.5 178 L 100.5 177 L 100.5 178 L 102 178.5 L 100 179.5 L 102.5 180 L 104.5 180 Q 110.8 181.8 112.5 179 L 115 180 L 113 176.5 L 115.5 176 Q 117.8 175.3 117 177.5 Q 114.8 178.8 117.5 180 L 118.5 176 L 119.5 178 L 120 175 L 123 175.5 L 120 181.5 L 122.5 185 L 124.5 184 L 129 184.5 L 128.5 186 L 130 186.5 L 129.5 188 L 131 188.5 L 126 190.5 L 127.5 193 L 129.5 192 Q 132.3 193.3 130 194.5 L 132.5 200 L 134 196 Q 139.2 193.9 138 198.5 L 136 206.5 L 141 209 L 142 204 Q 145 202.8 144 206.5 L 146 210.5 L 143 214.5 L 144.5 218 L 146 218.5 L 145.5 220 Q 151.3 218.3 150 222 Q 147.3 220.9 148 223.5 Q 149.3 226.3 150.5 224 L 154 225.5 L 153.5 228 Q 150.9 227.2 152 230.5 L 153 233 Q 155.7 234.1 155 231.5 L 155 229.5 Q 154.2 226.5 158 228 L 158 221.5 L 159.5 221 L 159 219.5 L 155.5 214 L 154 218 Q 151.3 219.1 152 216.5 L 153 214.5 L 152.5 213 Q 153.8 215.3 155 212.5 L 152 211.5 L 153 209.5 L 149 207.5 L 149.5 206 Q 147.3 205.3 148 207.5 L 147 207.5 L 148 205.5 L 146.5 205 L 145 205.5 L 146 204.5 L 144.5 202 L 148 204 Q 149.1 201.3 146.5 202 L 144 200.5 L 144 196.5 L 142.5 194 L 139 195 L 137.5 191 L 136 191.5 L 136.5 189 Q 139.8 190.1 139 187.5 L 137 187.5 L 135.5 184 Q 133.3 184.8 134 182.5 L 132 182.5 L 132 180.5 L 133.5 178 L 137.5 176 L 136.5 179 L 140.5 176 L 140 177.5 L 140.5 180 L 142 177 L 144 177.5 L 142.5 180 L 147 178.5 L 145 177.5 L 146.5 177 L 148 177.5 L 148.5 176 L 149 178 L 151.5 179 L 152 177.5 L 151.5 176 L 153.5 179 L 155 178.5 L 157 183 Q 160.7 181.5 160 184.5 L 160 186.5 L 159.5 188 L 158 187.5 L 160 190.5 L 159 193 L 163.5 192 L 163.5 193 L 161 193.5 L 164.5 195 L 165 192 L 168 193.5 L 166 193.5 L 168 197.5 L 167 197.5 L 165.5 195 L 165 196.5 L 166 199 L 168 199.5 L 166 202.5 L 168 203.5 Q 165.5 205 169 206.5 Q 168.2 209.1 171.5 208 L 173.5 209 Q 174.8 206.8 176 209.5 L 173 210.5 L 173.5 212 L 175 211.5 L 175 213.5 L 177 217.5 Q 174.5 219 178 220.5 L 180.5 225 L 183 223.5 L 184 227.5 L 184 229.5 L 186 234 L 188 233.5 L 187.5 232 L 190 233 L 190 229 L 191.5 229 Q 194.3 230.3 193 235.5 L 190 239.5 L 193 240.5 L 192 242.5 L 193.5 245 L 194 243 Q 196.7 241.9 196 244.5 L 196.5 246 Q 193.9 245.3 195 248 L 198.5 250 L 199 248.5 L 198.5 247 L 200 249.5 L 200 251.5 Q 199.3 253.8 201.5 253 L 201 254.5 Q 199.9 257.8 202.5 257 L 202.5 255 L 205.5 257 L 207 256.5 L 206 259.5 L 206 261.5 L 206.5 264 L 207.5 262 L 208 264 L 210 264.5 L 208 265 L 208 267.5 L 211.5 272 L 213.5 269 L 214.5 273 L 216 272.5 L 215 276.5 L 218.5 282 L 219.5 281 L 223 284.5 L 224 287.5 L 223 289.5 L 228.5 297 L 231.5 295 L 233 296.5 L 230.5 300 Q 236.6 301.3 236 298.5 L 234.5 299 L 233 298.5 L 235 297.5 L 234.5 296 L 237 294.5 Q 234.8 293.3 237.5 292 L 245 294.5 L 244.5 296 L 246 296.5 L 230.5 302 L 150.5 181 L 136.5 181 L 136 182.5 L 216 304.5 L 206.5 307 L 184.5 307 L 184.5 306 L 188 305.5 L 183 304.5 L 186 299.5 L 181.5 296 Q 180.8 298.8 176.5 298 L 174 297 L 173.5 295 L 172.5 296 L 170 294.5 L 169.5 296 L 165 294.5 L 170 293.5 Q 168.6 290.8 164 292 Q 162.8 289 166.5 290 L 172.5 292 L 189.5 294 L 191 291.5 L 118.5 181 L 18.5 181 L 18 180.5 L 18 165 Z M 29 166 L 27 168 L 29 168 L 29 166 Z M 34 166 L 34 167 L 36 167 L 34 166 Z M 38 166 L 36 168 L 33 167 Q 30 169 33 170 L 35 169 L 39 170 L 47 170 L 45 168 L 43 168 L 41 168 L 43 167 L 43 166 Q 39 165 40 168 L 39 168 Q 40 165 38 166 Z M 101 166 L 99 168 L 101 168 L 101 166 Z M 102 166 L 103 168 L 105 167 L 102 166 Z M 111 166 L 111 167 L 114 167 L 111 166 Z M 117 166 L 117 167 L 119 167 L 117 166 Z M 121 166 L 121 167 L 144 167 L 121 166 Z M 243 166 Q 244 169 241 168 L 242 171 L 243 170 L 252 170 L 256 170 L 256 168 L 253 168 L 256 167 L 248 166 L 248 168 L 247 167 L 245 168 L 245 167 L 243 166 Z M 260 166 L 260 167 L 264 167 L 260 166 Z M 271 166 L 271 167 L 273 167 L 271 166 Z M 338 166 L 338 168 Q 337 170 340 169 L 339 168 L 341 167 L 338 166 Z M 361 166 L 361 167 L 369 167 L 361 166 Z M 20 172 L 19 175 L 20 175 L 20 172 Z M 74 173 L 73 177 L 74 177 L 74 173 Z M 35 176 Q 33 179 36 178 L 35 176 Z M 81 176 L 81 177 L 88 177 L 81 176 Z M 90 176 L 90 178 L 88 178 L 73 178 L 72 177 L 56 178 L 64 178 L 64 179 Q 57 181 56 178 L 40 180 L 91 180 L 93 180 L 95 180 L 92 178 Q 93 175 90 176 Z M 94 176 L 95 178 Q 96 175 94 176 Z M 338 176 L 337 179 L 341 180 L 342 180 L 340 178 L 340 177 L 338 176 Z M 342 176 L 341 178 L 344 179 L 342 176 Z M 28 177 L 27 179 L 30 180 L 28 177 Z M 305 177 L 304 178 L 289 178 L 288 180 L 315 180 L 316 179 L 328 180 L 329 178 L 328 178 L 305 177 Z M 331 177 L 330 179 L 330 180 L 332 179 L 335 180 L 336 178 L 334 179 L 333 178 L 331 177 Z M 368 177 L 360 179 L 368 179 L 368 177 Z M 96 178 L 96 179 L 98 179 L 96 178 Z M 281 179 L 281 180 L 284 180 L 281 179 Z M 345 179 L 345 180 L 348 180 L 345 179 Z M 154 180 L 152 182 L 155 185 L 156 182 L 154 180 Z M 157 184 L 156 186 L 158 185 L 157 184 Z M 127 185 L 126 187 L 124 188 L 128 189 L 128 187 L 127 185 Z M 140 189 Q 137 191 140 192 Q 143 191 140 189 Z M 253 189 L 254 191 Q 255 188 253 189 Z M 165 199 L 166 201 Q 167 198 165 199 Z M 143 208 L 141 210 L 143 210 L 142 212 L 144 212 L 143 208 Z M 266 210 L 266 213 Q 269 212 266 210 Z M 161 223 L 160 226 L 162 226 L 161 223 Z M 162 226 Q 161 229 164 228 Q 165 225 162 226 Z M 161 229 L 161 232 L 159 232 L 160 234 L 158 235 L 160 235 L 159 239 L 161 240 L 159 241 L 161 241 L 160 243 L 165 249 L 166 246 L 169 245 Q 171 244 170 247 L 168 248 L 170 249 L 168 252 Q 167 257 170 258 Q 169 260 172 259 L 171 258 L 172 256 L 172 258 L 175 260 L 173 257 L 175 256 L 174 253 L 179 251 L 179 249 L 177 250 L 177 249 L 176 246 L 170 243 L 173 241 L 170 238 L 169 240 L 168 239 L 170 236 L 168 236 L 168 232 L 166 232 L 166 230 Q 163 229 164 232 L 163 232 L 164 230 L 163 229 L 161 229 Z M 190 234 L 190 235 L 192 235 L 190 234 Z M 157 235 L 158 237 L 159 237 L 157 235 Z M 282 236 L 282 238 L 284 237 L 282 236 Z M 180 252 L 180 254 L 178 254 Q 177 257 181 255 Q 182 251 180 252 Z M 182 255 L 181 256 Q 178 255 179 259 L 173 262 L 176 263 L 174 263 Q 173 266 176 265 L 176 268 L 178 269 Q 177 265 180 266 L 179 270 L 184 273 L 186 278 L 188 281 L 190 280 L 189 283 L 192 281 L 191 285 L 192 287 L 191 289 L 193 289 L 192 291 Q 193 297 191 297 L 188 301 L 189 303 L 190 305 L 193 304 L 194 305 L 192 306 L 201 306 L 203 306 L 208 304 L 209 302 L 209 304 L 211 303 L 209 301 Q 210 299 207 298 L 209 297 L 207 296 L 204 292 L 206 292 L 204 288 L 203 290 L 200 288 Q 197 289 198 285 L 196 283 L 193 279 L 196 277 L 195 275 L 193 273 L 194 276 L 192 278 L 189 274 L 190 272 L 189 271 Q 190 269 187 268 L 188 266 L 191 268 L 188 264 Q 185 265 186 263 L 185 263 Q 185 257 182 255 Z M 203 257 L 203 259 L 205 258 L 203 257 Z M 205 259 Q 203 262 206 261 L 205 259 Z M 213 272 Q 211 275 214 274 L 213 272 Z M 277 273 L 277 274 L 279 274 L 277 273 Z M 276 274 L 272 278 L 274 280 L 274 279 L 277 278 L 276 277 L 276 276 L 276 274 Z M 194 278 L 194 280 L 197 280 Q 198 277 194 278 Z M 199 279 L 197 281 L 198 284 L 200 283 L 199 279 Z M 188 283 Q 186 286 189 285 L 188 283 Z M 220 283 L 220 286 L 221 286 Q 222 282 220 283 Z M 266 283 Q 264 286 267 285 L 266 283 Z M 250 289 L 250 292 L 249 294 L 251 294 Q 252 290 250 289 Z M 255 290 L 255 291 L 257 291 L 255 290 Z M 252 291 L 252 293 L 254 292 L 252 291 Z M 175 293 L 174 295 L 178 296 L 179 296 L 178 294 L 177 294 L 175 293 Z M 180 294 L 180 296 L 182 295 L 180 294 Z M 237 296 L 236 298 L 239 298 L 237 296 Z M 212 300 L 211 302 L 214 303 L 212 300 Z " /><path fill="rgb(88,53,17)" stroke="rgb(88,53,17)" stroke-width="1" opacity="0.996078431372549" d="M 86.5 167 L 92 170.5 L 90.5 172 L 85.5 171 Q 80.7 172.3 82 169 Q 86.8 170.7 86.5 167 Z " /><path fill="rgb(88,53,17)" stroke="rgb(88,53,17)" stroke-width="1" opacity="0.996078431372549" d="M 276.5 169 L 285 170.5 L 280.5 172 L 276 171 L 276.5 169 Z " /><path fill="rgb(88,53,17)" stroke="rgb(88,53,17)" stroke-width="1" opacity="0.996078431372549" d="M 350 169 Q 353 168 352 171 Q 349 172 350 169 Z " /><path fill="rgb(88,53,17)" stroke="rgb(88,53,17)" stroke-width="1" opacity="0.996078431372549" d="M 320 170 L 332 170.5 L 322.5 171 L 318.5 174 L 289.5 173 L 288 172.5 L 320 172 L 320 170 Z " /><path fill="rgb(88,53,17)" stroke="rgb(88,53,17)" stroke-width="1" opacity="0.996078431372549" d="M 146.5 171 L 151.5 172 Q 152.7 169.8 157.5 171 L 159 173.5 L 155.5 173 Q 150 171.5 148.5 174 L 145 172.5 L 146.5 171 Z " /><path fill="rgb(88,53,17)" stroke="rgb(88,53,17)" stroke-width="1" opacity="0.996078431372549" d="M 224 173 Q 228.1 171.7 227 175 Q 222.9 176.3 224 173 Z " /><path fill="rgb(88,53,17)" stroke="rgb(88,53,17)" stroke-width="1" opacity="0.996078431372549" d="M 44.5 174 L 45 176.5 L 44 176.5 L 44.5 174 Z " /><path fill="rgb(88,53,17)" stroke="rgb(88,53,17)" stroke-width="1" opacity="0.996078431372549" d="M 210.5 174 L 214 175.5 L 208.5 176 L 208.5 175 L 210.5 174 Z " /><path fill="rgb(88,53,17)" stroke="rgb(88,53,17)" stroke-width="1" opacity="0.996078431372549" d="M 218.5 174 L 221 174.5 Q 220.3 176.8 216.5 176 L 216.5 175 L 218.5 174 Z " /><path fill="rgb(88,53,17)" stroke="rgb(88,53,17)" stroke-width="1" opacity="0.996078431372549" d="M 280.5 174 L 281.5 176 Q 278.7 176.7 280.5 174 Z " /><path fill="rgb(88,53,17)" stroke="rgb(88,53,17)" stroke-width="1" opacity="0.996078431372549" d="M 127 176 L 131 177.5 L 129.5 180 Q 127.3 180.8 128 178.5 L 127 176 Z " /><path fill="rgb(88,53,17)" stroke="rgb(88,53,17)" stroke-width="1" opacity="0.996078431372549" d="M 348.5 176 L 351 176.5 L 348.5 177 L 348.5 176 Z " /><path fill="rgb(88,53,17)" stroke="rgb(88,53,17)" stroke-width="1" opacity="0.996078431372549" d="M 240 182 Q 243.7 180.8 242 186 Q 238.3 187.2 240 182 Z " /><path fill="rgb(88,53,17)" stroke="rgb(88,53,17)" stroke-width="1" opacity="0.996078431372549" d="M 174.5 193 L 177 193.5 L 174.5 200 L 174.5 193 Z " /><path fill="rgb(88,53,17)" stroke="rgb(88,53,17)" stroke-width="1" opacity="0.996078431372549" d="M 170.5 204 Q 172.8 203.3 172 205.5 L 170.5 204 Z " /><path fill="rgb(88,53,17)" stroke="rgb(88,53,17)" stroke-width="1" opacity="0.996078431372549" d="M 150.5 215 L 149.5 217 L 148 216.5 L 150.5 215 Z " /><path fill="rgb(88,53,17)" stroke="rgb(88,53,17)" stroke-width="1" opacity="0.996078431372549" d="M 256 222 Q 259 221 258 224 Q 255 225 256 222 Z " /><path fill="rgb(88,53,17)" stroke="rgb(88,53,17)" stroke-width="1" opacity="0.996078431372549" d="M 186 224 L 190 224 L 190 225.5 Q 188.8 228.3 187.5 226 Q 184.9 226.7 186 224 Z " /><path fill="rgb(88,53,17)" stroke="rgb(88,53,17)" stroke-width="1" opacity="0.996078431372549" d="M 202.5 239 L 203.5 241 L 207 240.5 L 208 242.5 L 206 243.5 L 208 244 Q 209.1 246.7 206.5 246 L 207 247.5 L 206.5 251 L 204 242 L 201 241.5 L 202.5 239 Z " /><path fill="rgb(88,53,17)" stroke="rgb(88,53,17)" stroke-width="1" opacity="0.996078431372549" d="M 162.5 243 L 163.5 245 L 162.5 243 Z " /><path fill="rgb(88,53,17)" stroke="rgb(88,53,17)" stroke-width="1" opacity="0.996078431372549" d="M 208.5 247 L 209 252.5 L 208 252.5 L 208.5 247 Z " /><path fill="rgb(88,53,17)" stroke="rgb(88,53,17)" stroke-width="1" opacity="0.996078431372549" d="M 100.5 249 L 110 258.5 L 110 260 L 129.5 275 L 151 285.5 L 150.5 287 L 153.5 286 L 157 287 L 157.5 289 L 159.5 288 L 163 289.5 Q 160.9 291.9 155.5 291 L 147 288 L 148 285.5 L 144 284 Q 145.3 287 141.5 286 Q 140.3 283.8 135.5 285 L 128 278.5 L 129 275.5 L 127.5 274 L 126 274.5 L 124.5 272 L 122.5 271 L 120.5 271 L 119 270.5 L 119.5 269 L 116.5 270 L 115 269.5 Q 116.1 272.8 113.5 272 L 112.5 270 L 114 270.5 L 112 267.5 L 115 268.5 L 110.5 261 L 108 262 L 106 258.5 L 107 256.5 L 105.5 257 Q 103.3 256.3 104 258.5 L 107 262.5 L 106 262.5 L 103.5 259 L 101.5 260 L 99 257.5 L 100 254.5 Q 101.1 251.2 98.5 252 L 98.5 254 L 97 254.5 L 97.5 256 L 95 255 L 96 258.5 L 95 261.5 L 97.5 265 L 92 257.5 L 100.5 249 Z M 102 251 Q 100 254 103 253 L 102 251 Z M 102 254 L 101 256 L 103 255 L 102 254 Z M 131 276 L 130 279 L 131 279 L 131 276 Z " /><path fill="rgb(88,53,17)" stroke="rgb(88,53,17)" stroke-width="1" opacity="0.996078431372549" d="M 206.5 253 L 207.5 255 Q 204.7 255.7 206.5 253 Z " /><path fill="rgb(88,53,17)" stroke="rgb(88,53,17)" stroke-width="1" opacity="0.996078431372549" d="M 99.5 264 L 102.5 265 L 104 264.5 L 104 268.5 L 104.5 271 L 106 267.5 L 105.5 266 Q 109.8 267.3 109 272 L 106 272.5 L 109.5 273 L 111 272.5 L 110.5 274 Q 114.3 273.3 115 275.5 L 112 277.5 L 115.5 280 L 116 278 Q 119 276.8 118 280.5 L 121.5 280 L 123 280.5 L 121 281.5 L 123.5 282 L 126 281 L 128 286 L 132 287.5 L 131.5 289 L 133.5 288 L 134.5 290 L 133 289.5 L 134.5 292 L 136 291.5 Q 135.3 293.8 137.5 293 L 143.5 289 Q 144.6 291.8 148 291 L 149.5 295 L 152.5 294 L 154.5 297 L 156 296.5 L 156.5 299 L 157.5 296 L 158 299 L 160 298.5 Q 157.8 297.3 160.5 296 L 164 297.5 L 162 298 L 162.5 300 Q 163.8 297.8 165 300.5 L 163 301.5 L 163.5 303 L 151 300 L 150.5 298 L 148.5 299 L 143 296.5 L 144.5 296 L 146.5 297 Q 149.5 295.5 146.5 294 L 142.5 293 L 140 294.5 L 142 295.5 L 140.5 296 Q 115.9 285.1 99 266.5 L 100.5 267 L 102 266.5 L 99.5 264 Z M 125 282 L 122 283 L 122 284 L 125 286 L 125 284 L 126 287 L 128 287 L 125 282 Z " /><path fill="rgb(88,53,17)" stroke="rgb(88,53,17)" stroke-width="1" opacity="0.996078431372549" d="M 222.5 272 L 224 275.5 L 222 274.5 L 222.5 272 Z " /><path fill="rgb(88,53,17)" stroke="rgb(88,53,17)" stroke-width="1" opacity="0.996078431372549" d="M 222.5 280 Q 224.8 279.3 224 281.5 L 222.5 280 Z " /><path fill="rgb(88,53,17)" stroke="rgb(88,53,17)" stroke-width="1" opacity="0.996078431372549" d="M 256 280 L 260 281.5 L 258 282 Q 259.1 284.7 256.5 284 L 256 281.5 L 256 280 Z " /><path fill="rgb(88,53,17)" stroke="rgb(88,53,17)" stroke-width="1" opacity="0.996078431372549" d="M 145.5 285 L 146 288 L 144 287.5 L 145.5 285 Z " /><path fill="rgb(88,53,17)" stroke="rgb(88,53,17)" stroke-width="1" opacity="0.996078431372549" d="M 228.5 287 L 232 287.5 L 231 289.5 L 231 291.5 L 229.5 294 L 226 288 L 228.5 287 Z " /><path fill="rgb(88,53,17)" stroke="rgb(88,53,17)" stroke-width="1" opacity="0.996078431372549" d="M 161.5 292 Q 163.8 291.3 163 293.5 L 161.5 292 Z " /><path fill="rgb(88,53,17)" stroke="rgb(88,53,17)" stroke-width="1" opacity="0.996078431372549" d="M 165.5 296 Q 168.8 294.9 168 297.5 L 166.5 297 L 165.5 296 Z " /><path fill="rgb(88,53,17)" stroke="rgb(88,53,17)" stroke-width="1" opacity="0.996078431372549" d="M 176.5 301 L 179 302 Q 180.1 304.7 177.5 304 L 177.5 305 L 181.5 304 L 182 306 L 176.5 306 L 176 304.5 L 174.5 305 L 170 304.5 Q 174.6 305.1 176 302.5 L 176.5 301 Z " /><path fill="rgb(88,53,17)" stroke="rgb(88,53,17)" stroke-width="1" opacity="0.996078431372549" d="M 165.5 303 L 169 303.5 L 165.5 304 L 165.5 303 Z " /><path fill="rgb(88,54,17)" stroke="rgb(88,54,17)" stroke-width="1" opacity="1" d="M 175 41 Q 178.8 39.5 178 42.5 L 181.5 42 L 183.5 44 L 185.5 42 L 191.5 42 L 211.5 42 L 215 41 Q 213.9 43.7 216.5 43 L 221.5 42 L 223 45 L 225 44.5 L 224.5 43 L 227 47 L 229 46.5 L 228 44.5 L 229 44.5 L 230.5 47 L 232 46.5 L 231.5 45 Q 233.3 48.1 235 46.5 L 234.5 48 L 238.5 47 L 238 48.5 L 238.5 50 L 241.5 48 L 245 50.5 L 242.5 52 L 242.5 50 L 240 50.5 L 241 53.5 Q 239.8 56 236 55 L 236.5 57 L 239.5 56 L 242.5 56 L 249 52.5 L 248.5 51 L 250.5 54 L 253 53 L 253.5 55 L 255 54.5 Q 254.1 57.5 258.5 56 L 264 59 L 264.5 61 Q 265.8 58.7 267 61.5 L 266 63.5 L 267.5 64 L 269.5 63 L 272 64 L 271 66.5 L 273.5 68 L 273.5 66 L 276 67.5 Q 275.3 69.8 277.5 69 L 279.5 72 L 281 71.5 Q 280.3 74.1 283 73 L 283 75 L 284.5 75 L 289.5 81 L 291 81.5 Q 287.3 83.2 290.5 85 L 292.5 86 Q 293.8 83.8 295 86.5 L 294 91 Q 291.3 89.9 292 92.5 Q 291 95 286.5 94 L 286.5 93 L 288 92.5 L 280 86.5 Q 280.8 84.3 278.5 85 L 276 81 L 272 78.5 L 270 75.5 L 267.5 75 L 259 70 L 258.5 68 L 256.5 68 Q 254.3 68.8 255 66.5 L 253 66.5 L 253.5 65 L 251 65 L 251 63 Q 248.3 64.1 249 61.5 L 245.5 62 L 236.5 58 L 235.5 59 Q 233.8 55.9 232 57.5 L 232.5 56 L 229.5 57 L 224 54.5 L 227 54 Q 228.3 51 224.5 52 L 219 54 Q 220 51 217 52 Q 218.1 54.7 215.5 54 L 213.5 52 L 196.5 52 L 192.5 50 L 192.5 52 L 179.5 51 L 175.5 52 L 173.5 52 L 172 52.5 L 174 53.5 L 171.5 54 L 168 52.5 L 172 51.5 Q 170 48.5 164.5 49 Q 161.8 50.3 164 51.5 Q 163.2 58.8 167.5 61 Q 169.8 60.3 169 62.5 L 168.5 64 L 172 64.5 L 171 68.5 L 174 70.5 L 174.5 69 L 176 72.5 L 175 74.5 L 178 73.5 L 177.5 75 L 179 75.5 L 177 76.5 L 180 77.5 L 178 78.5 L 178.5 80 L 177 79.5 L 176 81.5 L 180 82 Q 178.8 85 182.5 84 L 185 84.5 L 184.5 86 L 187 87.5 L 185.5 87 Q 182.5 86.5 184 93.5 L 185 93.5 L 185.5 92 L 186 94.5 L 185.5 96 L 188 94.5 L 188.5 90 L 192 95.5 L 191 98.5 L 193.5 99 L 195 99.5 L 194 100.5 L 195.5 103 L 194 102.5 L 195 108 L 197.5 109 L 198.5 106 Q 201.3 107.3 199 108.5 Q 198.3 110.8 200.5 110 Q 204.2 112 202.5 114 L 205 115.5 Q 203.9 118.8 206.5 118 L 212 126.5 L 211 128.5 L 214 129.5 L 217 133.5 L 214 132.5 L 213 136.5 L 214 139 L 219.5 141 L 217.5 138 L 216 137.5 L 218 136.5 L 217.5 135 L 218.5 138 Q 220.8 137.3 220 139.5 L 220.5 142 L 224 143.5 L 225 147 L 216.5 146 L 213.5 147 L 208.5 148 L 207.5 147 L 192.5 147 Q 190.8 149.8 184.5 148 L 183.5 147 L 167.5 147 L 166.5 146 L 161.5 147 L 158 148.5 Q 160.7 151.3 167.5 150 L 168.5 149 L 183.5 149 L 184.5 150 L 195 150.5 L 149.5 151 L 148.5 150 L 132 149.5 L 144 148.5 Q 143 146 138.5 147 L 137 147.5 L 136.5 146 L 135.5 148 L 134 145.5 L 134.5 144 L 132 145.5 L 133.5 148 L 127 142.5 L 124 138.5 L 126 138.5 Q 126.7 135.5 123 137 L 123 133.5 L 118 129.5 L 117 127.5 L 117.5 126 L 115 124.5 L 116 122.5 L 112 120.5 L 111 118.5 L 111.5 117 Q 108.9 117.8 110 114.5 L 108 114.5 L 108.5 111 Q 104.5 111.5 104 108.5 L 102 104.5 L 104 103.5 L 102 102.5 L 104 101.5 L 101.5 101 Q 100.3 103.3 99 100.5 L 101.5 100 L 104 99.5 L 97 97.5 L 97.5 96 Q 95.3 96.8 96 94.5 Q 92.9 92.8 94.5 91 Q 91.5 91.9 93 87.5 L 100.5 79 L 103.5 77 L 109 78 L 107.5 74 L 104.5 76 L 107.5 72 L 111.5 74 L 112.5 72 L 110 70.5 L 111.5 71 Q 113.8 71.8 113 69.5 Q 110.8 68.3 113.5 67 L 128 58.5 Q 127.3 56.3 129.5 57 L 132.5 55 L 134 55.5 L 134.5 54 L 136.5 55 L 140.5 52 L 142 52.5 Q 141.3 50.3 143.5 51 L 146.5 52 L 149 51 L 151.5 47 L 154.5 46 L 155.5 47 L 158 45.5 L 157 47.5 L 158.5 48 L 163 46.5 L 159 45.5 Q 160.2 42.8 161.5 45 L 163.5 44 L 164.5 46 L 166.5 43 Q 168.8 42.3 168 44.5 L 169.5 44 L 173.5 46 Q 176 44.8 175 41 Z M 177 42 Q 175 45 178 44 L 177 42 Z M 209 45 L 208 46 L 177 46 L 176 48 L 187 49 L 190 48 L 190 50 L 195 49 L 198 48 L 200 50 L 199 50 L 199 51 L 204 51 L 202 49 L 202 48 L 216 51 Q 220 52 218 48 L 222 48 Q 221 45 220 47 L 209 45 Z M 226 45 L 224 47 L 226 48 L 226 45 Z M 175 49 L 175 50 L 177 50 L 175 49 Z M 150 51 L 152 53 Q 153 50 150 51 Z M 149 55 L 149 56 L 152 56 L 149 55 Z M 251 55 L 251 56 L 253 56 L 251 55 Z M 135 56 L 136 58 Q 137 55 135 56 Z M 255 56 L 253 59 L 257 61 Q 258 63 259 61 L 257 59 L 255 56 Z M 128 60 L 126 62 L 128 62 L 128 60 Z M 132 62 L 132 64 L 136 64 L 132 62 Z M 260 62 L 259 64 L 263 65 L 263 63 L 260 62 Z M 265 62 Q 263 65 266 66 L 267 66 L 265 62 Z M 268 64 L 268 66 L 270 65 L 268 64 Z M 117 66 L 114 68 L 114 69 Q 117 69 118 67 L 117 66 Z M 269 68 Q 268 71 272 70 Q 273 67 269 68 Z M 273 70 L 274 72 Q 275 69 273 70 Z M 265 71 L 266 73 Q 267 70 265 71 Z M 282 75 L 281 77 L 285 78 L 285 76 L 282 75 Z M 278 77 L 276 79 L 278 83 L 279 80 L 280 82 L 280 81 L 281 78 L 278 77 Z M 283 78 L 282 81 L 285 82 L 286 85 L 289 86 L 288 85 L 289 82 L 286 80 L 284 80 L 283 78 Z M 288 90 L 289 92 Q 290 89 288 90 Z M 290 90 L 290 92 L 292 91 L 290 90 Z M 175 93 L 177 97 L 179 96 Q 180 91 175 93 Z M 193 106 L 191 110 Q 189 114 193 113 L 192 115 Q 191 117 195 116 L 194 115 L 196 114 L 194 113 Q 195 108 193 106 Z M 200 114 L 200 118 L 202 119 L 201 117 L 202 115 L 200 114 Z M 204 116 L 203 119 L 205 119 L 204 116 Z M 117 120 L 116 122 L 118 123 L 117 120 Z M 124 128 Q 123 131 126 130 Q 127 127 124 128 Z M 128 132 Q 125 134 128 135 L 129 135 L 128 132 Z M 127 139 L 128 141 Q 129 138 127 139 Z " /><path fill="rgb(88,54,17)" stroke="rgb(88,54,17)" stroke-width="1" opacity="1" d="M 169.5 42 L 172 42.5 L 169.5 43 L 169.5 42 Z " /><path fill="rgb(88,54,17)" stroke="rgb(88,54,17)" stroke-width="1" opacity="1" d="M 172.5 66 L 173.5 68 L 172.5 66 Z " /><path fill="rgb(88,54,17)" stroke="rgb(88,54,17)" stroke-width="1" opacity="1" d="M 180.5 79 L 183 82.5 L 181 81.5 L 180.5 79 Z " /><path fill="rgb(88,54,17)" stroke="rgb(88,54,17)" stroke-width="1" opacity="1" d="M 215.5 149 L 219 150.5 L 212.5 151 L 212.5 150 L 215.5 149 Z " /><path fill="rgb(88,54,17)" stroke="rgb(88,54,17)" stroke-width="1" opacity="1" d="M 20.5 166 Q 26 164.5 27.5 167 L 29 166.5 Q 29.8 168.8 27.5 168 L 26 167.5 L 26.5 171 L 27.5 169 L 28.5 171 L 30 170.5 L 30.5 172 L 33.5 171 L 41.5 171 Q 47 169.5 48.5 172 L 50 169.5 L 48 168.5 L 48.5 166 L 51.5 168 L 52 166 Q 55.8 164.5 55 167.5 L 56 167.5 Q 55.3 165.3 57.5 166 L 59.5 167 L 62.5 166 L 64.5 167 L 66 166.5 L 65.5 168 L 68.5 166 L 69.5 168 L 72 167.5 L 72.5 166 L 81.5 166 L 83.5 166 L 96.5 166 L 97.5 167 L 101 166.5 Q 101.8 168.8 99.5 168 L 98 167.5 L 98.5 171 L 99.5 169 L 100.5 171 L 101.5 169 L 102.5 171 L 103.5 169 L 104.5 171 L 105.5 169 L 106.5 171 L 110.5 169 L 111.5 171 L 114 169.5 L 113.5 168 L 157.5 168 L 158.5 166 L 183.5 166 L 187.5 167 L 191.5 166 L 193.5 167 Q 194.8 164.8 199.5 166 Q 201.3 168.8 207.5 167 L 209.5 167 L 211.5 166 L 214.5 168 L 218.5 166 L 220.5 167 L 222 166.5 L 222.5 168 L 223.5 166 L 225.5 166 L 228.5 167 L 231.5 166 Q 233.2 168.8 239.5 167 L 241 166.5 Q 240.3 169.1 243 168 Q 241.9 165.3 244.5 166 L 246.5 167 L 247.5 166 L 255.5 166 L 255.5 167 L 253 167.5 L 256 168 L 255.5 170 L 251.5 170 L 242.5 170 L 241.5 171 L 241 168 L 236 168.5 L 238.5 170 L 240 169.5 Q 238.5 173.9 241.5 173 L 243.5 173 Q 253.1 174.4 257 172 Q 255.9 169.3 258.5 170 L 261.5 169 L 266 167.5 L 265.5 166 L 267 166 L 267 170 L 272 170 L 273 167.5 L 270.5 167 Q 269.3 169.3 268 166.5 L 270.5 166 L 273.5 167 L 275.5 166 L 278 167.5 L 278.5 166 L 279.5 168 L 280 166 L 283.5 167 L 285 166.5 L 284.5 168 L 287.5 166 L 311.5 166 L 318.5 167 L 323 166 Q 321.9 168.7 324.5 168 L 324.5 166 L 326.5 166 L 330 166 Q 329 169 332 168 Q 330.7 164.7 335.5 166 L 337.5 166 L 342.5 167 Q 343.7 164.8 348.5 166 L 350.5 167 L 353.5 166 L 356 167.5 Q 355.2 164.5 359 166 L 359.5 168 L 366.5 168 L 369 168.5 L 368.5 170 L 370 170.5 L 368 171 L 368.5 173 L 370 172.5 L 369 174.5 L 369.5 176 L 366 175.5 L 365.5 177 L 364.5 175 L 363.5 177 L 362.5 175 L 361.5 177 L 360.5 175 L 360 178 L 366.5 178 L 367.5 177 L 368 179 L 360.5 179 L 359.5 178 L 344.5 178 L 344.5 179 L 348 179.5 L 344.5 180 L 342.5 179 L 340.5 180 L 336.5 178 L 334.5 180 L 331.5 179 L 329.5 180 L 327.5 180 L 315.5 179 L 314.5 180 L 287.5 180 L 288.5 178 L 304 177.5 L 302.5 176 L 289.5 177 L 277 178.5 L 279 179.5 L 277.5 180 L 275.5 179 L 272.5 180 L 270.5 179 L 269 179.5 L 270 177.5 L 269.5 176 Q 270.7 178.3 272 175.5 L 270.5 173 L 266 175 Q 267.1 177.7 264.5 177 L 264.5 178 L 266 178.5 L 259.5 180 L 255.5 180 L 252.5 179 Q 251 181.5 249.5 178 L 247 179.5 L 246 186.5 L 249 184.5 L 249.5 183 L 250 184.5 Q 247.7 185.8 250.5 187 L 252 187.5 L 250 188.5 L 252.5 193 L 254 191.5 L 252.5 189 Q 254.8 188.3 254 190.5 Q 257 192 256.5 197 L 257.5 195 L 259 197.5 L 258 204 Q 254.7 202.9 256 207 Q 259 208 258 205 L 260.5 205 L 263 203.5 Q 262.5 208 266 208.5 L 265 209.5 L 267 213.5 L 265.5 216 L 266 214.5 L 265.5 213 L 264 213.5 L 265 210.5 L 264 210.5 L 264 212 L 262 212.5 L 262 218 L 268 218 L 268 215.5 L 268.5 213 L 272 219 L 274 219.5 L 272 220.5 L 275 221.5 L 275 225.5 L 276.5 228 L 278.5 227 L 281 230.5 L 280 231.5 Q 284.3 233.7 282.5 236 L 285 237.5 L 287 240.5 Q 290.1 242.3 288.5 244 L 290 244.5 L 288 245.5 L 291 246.5 L 290.5 248 L 292 248.5 L 290 252 L 293.5 251 L 295.5 255 L 298 256.5 L 296.5 256 L 293 258.5 Q 293.8 260.8 291.5 260 Q 289.3 260.8 290 264.5 L 292 264.5 L 287 268 Q 288.1 270.7 285.5 270 L 281 272.5 L 281.5 274 L 279.5 273 L 276 274 L 275 276.5 L 277 277.5 L 274 278.5 L 273.5 280 L 272 277.5 L 272.5 276 L 268.5 275 Q 267 277.5 265.5 274 L 264 274 L 264 278 L 270.5 281 L 272 280.5 L 264.5 286 L 262 285 L 260.5 289 L 258.5 290 L 258.5 288 Q 253.5 287 252.5 290 L 251.5 288 Q 248.7 289.2 251 290.5 Q 252.5 294.9 249.5 294 L 243.5 297 L 244.5 294 L 237.5 292 L 236 293.5 L 237.5 297 L 240.5 296 L 241.5 298 L 239.5 297 L 236 298 Q 237.4 302 230.5 300 L 230.5 298 L 226 294.5 L 219 283.5 L 221 282.5 L 217 280.5 L 214.5 273 L 212 274 L 206 263.5 L 206 261 Q 203.3 262.1 204 259.5 L 203 257 Q 200 258.3 201 254.5 L 201.5 253 Q 199.3 253.8 200 251.5 L 195 248 L 192 242.5 L 193 240.5 L 190 239.5 L 191 237.5 L 190.5 236 Q 191.8 238.3 193 235.5 Q 194.3 230.3 191.5 229 L 190 229 L 190 233 L 188.5 233 L 186 234 L 183 228.5 L 183 226.5 L 182.5 223 L 180 224.5 L 176 218.5 L 177 216.5 L 173 210.5 L 173.5 209 L 169 208 L 167 204.5 L 167.5 203 L 166 202.5 L 168 199.5 L 166 199 L 165.5 201 L 164.5 199 Q 166.8 199.8 166 197.5 L 164.5 198 L 163 197.5 L 165 197 L 163.5 194 L 159 193 L 158 190.5 L 160 190.5 L 158 187.5 L 156 187.5 L 156.5 186 L 154 184.5 L 152 181.5 L 155 180 L 154.5 178 L 153 178.5 L 152.5 177 L 150.5 180 L 148.5 179 L 146.5 179 L 142.5 180 L 140 179.5 L 139.5 177 L 138.5 180 L 133.5 178 L 133.5 180 L 132 179.5 L 134 184 L 137 185.5 L 137.5 188 L 139 187.5 L 141 190.5 Q 138.3 191.6 139 195 L 142.5 194 L 145 197.5 L 144.5 201 L 146.5 200 L 146.5 202 Q 148.8 201.3 148 203.5 L 148.5 206 L 150 206.5 L 149.5 208 L 153 209.5 L 152 211.5 L 155 212.5 L 152 218 Q 154.7 219.1 154 216.5 L 155.5 214 L 160 220.5 L 158 221 L 158 228 Q 154.3 226.5 155 229.5 L 155 231.5 L 155.5 233 L 157.5 232 L 157.5 233 L 155.5 234 L 153 233 L 152 228 L 150 227.5 L 151.5 227 L 153.5 228 L 154 225.5 L 152.5 224 L 149.5 225 L 148 222 Q 151 223 150 220 L 145 219.5 L 145.5 218 L 143 216.5 L 144 215.5 L 141 212.5 L 142.5 210 L 139.5 211 L 139.5 210 L 141 209.5 L 136 206.5 L 138 196 L 134 196 L 134 197.5 L 132.5 200 L 130 194.5 Q 132.3 193.3 129.5 192 L 127.5 193 L 125 189.5 L 125.5 188 L 123 186.5 L 124.5 184 L 122.5 185 L 119 179.5 L 119 177.5 L 118.5 176 L 117.5 180 L 115 178.5 Q 115.8 180.8 113.5 180 L 111.5 180 Q 105.2 181.8 103.5 179 L 100.5 180 L 97.5 179 L 92.5 180 L 90.5 180 L 40.5 180 L 39.5 179 L 37.5 179 L 34.5 178 L 34.5 180 L 32.5 179 L 29.5 180 L 27.5 179 L 25.5 179 L 19.5 180 L 20 178.5 L 21.5 168 L 23.5 171 L 25 171 L 25 167 L 20.5 167 L 20.5 166 Z M 87 167 Q 87 171 82 169 Q 81 172 86 171 L 91 172 L 92 171 L 87 167 Z M 160 167 L 160 168 L 184 168 L 160 167 Z M 338 167 L 334 172 L 345 172 L 347 172 L 347 170 L 342 170 L 342 169 L 340 167 L 340 169 L 338 169 L 338 167 Z M 224 168 Q 223 171 226 170 Q 227 167 224 168 Z M 277 169 L 276 171 L 281 172 L 285 171 L 277 169 Z M 350 169 Q 349 172 352 171 Q 353 168 350 169 Z M 320 170 L 320 172 L 323 171 L 332 171 L 320 170 Z M 147 171 L 145 173 L 149 174 Q 150 172 156 173 L 159 174 L 158 171 Q 153 170 152 172 L 147 171 Z M 71 172 L 71 173 Q 73 172 72 176 L 64 176 L 63 174 Q 59 173 60 176 L 50 176 L 49 178 Q 55 180 57 177 L 72 177 L 73 178 L 88 178 L 77 176 L 75 177 Q 77 170 71 172 Z M 289 172 L 290 173 L 319 174 L 320 173 L 289 172 Z M 224 173 Q 223 176 227 175 Q 228 172 224 173 Z M 236 173 Q 234 177 238 176 L 237 175 L 240 174 L 236 173 Z M 256 173 L 256 176 L 255 178 Q 260 179 261 176 L 256 173 Z M 35 174 L 32 176 L 34 178 L 34 177 L 36 177 L 35 174 Z M 41 174 L 42 176 L 39 177 L 43 177 Q 45 173 41 174 Z M 45 174 L 44 177 L 45 177 L 45 174 Z M 47 174 L 46 177 L 48 177 L 47 174 Z M 85 174 L 80 176 L 88 176 L 90 176 Q 93 175 92 178 L 95 179 L 94 176 Q 96 175 95 178 Q 99 179 98 177 L 97 177 L 96 175 Q 92 173 85 174 Z M 211 174 L 209 175 L 209 176 L 214 176 L 211 174 Z M 219 174 L 217 175 L 217 176 Q 220 177 221 175 L 219 174 Z M 281 174 Q 279 177 282 176 L 281 174 Z M 323 174 L 322 175 Q 319 174 320 177 L 313 176 L 304 177 L 313 178 L 328 178 L 329 177 L 330 179 L 330 178 L 334 176 L 335 177 L 333 177 L 334 179 L 336 178 L 338 178 Q 337 175 340 176 L 340 178 Q 342 179 341 177 L 343 177 L 343 175 L 335 174 L 333 174 L 328 176 L 326 175 L 323 174 Z M 120 175 L 122 179 L 123 176 L 120 175 Z M 345 175 Q 343 178 346 177 L 345 175 Z M 22 176 L 21 179 L 22 179 L 22 176 Z M 30 176 L 31 178 L 32 178 L 30 176 Z M 101 176 L 101 177 L 103 177 L 101 176 Z M 116 176 L 117 178 Q 118 175 116 176 Z M 127 176 L 128 179 Q 127 181 130 180 L 131 178 L 127 176 Z M 349 176 L 349 177 L 351 177 L 349 176 Z M 37 177 L 38 178 L 39 179 Q 40 176 37 177 Z M 142 177 L 142 179 L 144 178 L 142 177 Z M 41 178 L 41 179 L 48 179 L 41 178 Z M 57 178 L 57 179 L 64 179 L 57 178 Z M 157 181 L 155 184 L 156 185 L 158 184 Q 156 186 160 188 L 160 187 L 160 185 Q 161 181 157 183 L 157 181 Z M 240 182 Q 238 187 242 186 Q 244 181 240 182 Z M 126 185 L 124 187 L 126 187 L 126 185 Z M 129 186 Q 126 188 129 189 L 131 189 L 130 188 L 130 187 L 129 186 Z M 249 186 L 247 188 L 250 188 L 249 186 Z M 137 189 Q 137 193 139 190 L 137 189 Z M 249 189 L 250 191 Q 251 188 249 189 Z M 162 192 L 162 193 L 164 193 L 162 192 Z M 165 192 L 166 195 L 167 193 L 165 192 Z M 175 193 L 175 200 L 177 194 L 175 193 Z M 142 204 L 141 209 L 144 209 Q 146 208 144 207 Q 145 203 142 204 Z M 171 204 L 172 206 Q 173 203 171 204 Z M 146 208 L 144 212 L 146 211 L 146 208 Z M 143 212 L 144 214 Q 145 211 143 212 Z M 256 222 Q 255 225 258 224 Q 259 221 256 222 Z M 186 224 Q 185 227 188 226 Q 189 228 190 226 L 190 224 L 186 224 Z M 281 233 Q 279 236 282 235 L 281 233 Z M 281 236 L 282 238 Q 283 235 281 236 Z M 281 238 Q 279 241 282 240 L 281 238 Z M 203 239 L 201 242 L 204 242 L 205 247 L 207 246 Q 209 247 208 244 L 206 244 L 208 243 L 207 241 L 204 241 L 203 239 Z M 194 243 L 194 245 L 197 246 L 196 245 Q 197 242 194 243 Z M 207 247 L 206 251 L 207 251 L 207 247 Z M 209 247 L 208 253 L 209 253 L 209 247 Z M 207 253 Q 205 256 208 255 L 207 253 Z M 288 253 L 288 260 L 291 260 L 290 257 L 290 255 Q 291 252 288 253 Z M 206 257 L 204 259 L 206 260 L 206 257 Z M 214 269 L 212 272 L 214 273 L 214 269 Z M 279 271 L 276 273 L 279 273 L 279 271 Z M 223 272 L 222 275 L 224 276 L 223 272 Z M 275 273 L 273 276 L 276 274 L 275 273 Z M 223 280 L 224 282 Q 225 279 223 280 Z M 256 280 L 256 282 L 257 284 Q 259 285 258 282 L 260 282 L 256 280 Z M 222 283 L 221 286 L 224 288 L 222 283 Z M 229 287 L 226 288 L 230 294 L 231 292 L 231 290 L 232 288 L 229 287 Z M 249 289 L 244 293 L 249 294 L 250 292 L 249 292 L 249 291 L 249 289 Z M 235 296 L 236 298 Q 237 295 235 296 Z " /><path fill="rgb(88,54,17)" stroke="rgb(88,54,17)" stroke-width="1" opacity="1" d="M 31.5 166 L 33.5 166 L 36.5 167 L 39 166 L 39.5 168 L 40 166 L 43.5 167 L 45 166.5 L 44.5 168 L 46.5 167 L 46.5 170 L 34.5 169 L 32.5 170 Q 28 168 31.5 166 Z M 34 167 L 34 168 L 36 168 L 34 167 Z " /><path fill="rgb(88,54,17)" stroke="rgb(88,54,17)" stroke-width="1" opacity="1" d="M 102 166 L 105.5 167 Q 106.8 164.8 108 167.5 L 107.5 169 L 106.5 167 L 104.5 167 L 102.5 168 L 102 166 Z " /><path fill="rgb(88,54,17)" stroke="rgb(88,54,17)" stroke-width="1" opacity="1" d="M 110.5 166 L 114 166.5 L 110.5 167 L 110.5 166 Z " /><path fill="rgb(88,54,17)" stroke="rgb(88,54,17)" stroke-width="1" opacity="1" d="M 116.5 166 L 119 166.5 L 116.5 167 L 116.5 166 Z " /><path fill="rgb(88,54,17)" stroke="rgb(88,54,17)" stroke-width="1" opacity="1" d="M 120.5 166 L 144 166.5 L 120.5 167 L 120.5 166 Z " /><path fill="rgb(88,54,17)" stroke="rgb(88,54,17)" stroke-width="1" opacity="1" d="M 259.5 166 L 264 166.5 L 259.5 167 L 259.5 166 Z " /><path fill="rgb(88,54,17)" stroke="rgb(88,54,17)" stroke-width="1" opacity="1" d="M 360.5 166 L 369 166.5 L 360.5 167 L 360.5 166 Z " /><path fill="rgb(88,54,17)" stroke="rgb(88,54,17)" stroke-width="1" opacity="1" d="M 19.5 172 L 20 174.5 L 19 174.5 L 19.5 172 Z " /><path fill="rgb(88,54,17)" stroke="rgb(88,54,17)" stroke-width="1" opacity="1" d="M 73.5 173 L 74 176.5 L 73 176.5 L 73.5 173 Z " /><path fill="rgb(88,54,17)" stroke="rgb(88,54,17)" stroke-width="1" opacity="1" d="M 280.5 179 L 284 179.5 L 280.5 180 L 280.5 179 Z " /><path fill="rgb(88,54,17)" stroke="rgb(88,54,17)" stroke-width="1" opacity="1" d="M 160.5 223 L 162.5 226 Q 164.8 225.3 164 227.5 L 164.5 230 L 166 230.5 L 165.5 232 L 168 232 L 168 236 L 169.5 236 Q 173.2 238 171.5 240 L 174 241.5 L 175 243.5 L 173 242.5 L 172.5 241 L 170 242.5 L 176 246 L 177 248.5 L 176.5 250 L 178.5 249 L 179 251 L 177 251.5 Q 178.2 254.3 179.5 252 Q 182.1 251.2 181 254.5 Q 184.7 256.8 184.5 263 L 185.5 260 Q 188.3 261.2 186 262.5 Q 185.3 264.8 187.5 264 L 190.5 268 L 187.5 266 L 187 267.5 Q 190.1 269.3 188.5 271 L 190 271.5 L 189 273.5 L 191.5 278 L 193 276.5 L 192.5 273 L 195 274.5 L 196 276.5 L 194 277.5 L 197 278 L 197.5 280 L 199 279.5 L 201 283.5 L 198 284.5 Q 196.5 288.9 199.5 288 L 202.5 290 L 203.5 288 L 207 292.5 L 207 294.5 Q 206.3 296.8 208.5 296 L 210 298.5 L 208.5 301 L 210.5 302 L 211.5 300 L 213.5 303 L 211.5 302 L 209 303.5 L 208.5 302 L 208 304 L 202.5 306 L 200.5 306 Q 192.8 307.2 189 304.5 L 189 302.5 L 188 300.5 L 190.5 297 Q 193.5 297.5 192 290.5 L 193 288.5 L 191 288.5 L 190.5 287 L 189 287.5 Q 191.3 286.2 188.5 285 Q 186.3 285.8 187 283.5 L 187.5 282 L 186 281.5 L 188 281 L 188 279 Q 185.3 280.1 186 277.5 L 184 273 L 180.5 271 Q 179.3 273.3 178 270.5 Q 180.8 269.4 180 266 Q 177 264.8 178 268.5 L 176 267.5 L 176 265 Q 173 266 174 263 L 176 262.5 L 172 260.5 L 170 257.5 Q 167 256 167.5 251 L 166.5 253 L 165 250.5 L 166.5 248 L 168.5 251 L 170 248.5 L 168 247.5 L 170 247 Q 171.1 244.3 168.5 245 L 166 245.5 L 164.5 249 L 160 242.5 L 160.5 241 L 157 238.5 L 160 237.5 Q 161.1 234.2 158.5 235 L 158.5 237 L 156 235.5 L 160 233.5 L 159 231.5 L 161 228.5 L 160.5 227 L 162 227.5 Q 162.7 224.9 160 226 L 160.5 223 Z M 177 252 L 174 253 L 175 255 L 177 254 L 178 255 L 177 252 Z M 176 255 L 176 257 L 175 260 L 179 259 Q 178 255 181 256 L 181 255 L 178 256 L 176 255 Z M 174 256 L 175 258 Q 176 255 174 256 Z M 174 259 Q 172 262 175 261 L 174 259 Z M 196 279 L 194 282 L 197 283 L 198 284 Q 199 280 196 279 Z M 189 283 L 191 286 L 191 285 L 189 283 Z M 208 297 L 209 299 Q 210 296 208 297 Z " /><path fill="rgb(88,54,17)" stroke="rgb(88,54,17)" stroke-width="1" opacity="1" d="M 189.5 234 L 192 234.5 L 188.5 236 L 189.5 234 Z " /><path fill="rgb(88,54,17)" stroke="rgb(88,54,17)" stroke-width="1" opacity="1" d="M 100.5 250 L 114.5 267 L 115 265.5 L 114.5 264 L 118.5 269 L 120 269.5 L 119.5 271 L 121.5 270 L 126 273.5 L 126.5 275 Q 127.7 272.8 129 275.5 L 128 278.5 L 130.5 281 L 135.5 285 L 144 286 Q 145.1 283.3 142.5 284 L 135 279.5 L 136.5 280 L 148 285.5 L 147 288 L 150.5 290 L 160.5 291 L 164 290 Q 162.7 293.7 168.5 292 L 172 293.5 Q 169.8 294.8 172.5 296 L 174.5 293 L 176.5 294 L 178 293.5 L 179 295.5 L 177.5 296 L 174 295 Q 172.9 297.7 175.5 297 L 179.5 298 Q 182.2 296.8 180 295.5 Q 179.3 293.3 181.5 294 L 181.5 296 L 184.5 294 L 186.5 294 L 189 295.5 L 187.5 295 L 185.5 296 Q 184.3 293.8 183 296.5 L 186 300.5 L 183 304.5 L 188 305.5 L 182 306 L 181.5 304 L 177.5 305 L 177.5 304 Q 180.1 304.7 179 302 L 176.5 301 L 175 303.5 L 175.5 305 L 164.5 303 L 163 301.5 L 165 300.5 L 162 299.5 Q 161.3 297.3 163.5 298 L 162.5 296 L 159 297.5 L 159.5 299 Q 156.9 299.8 158 296.5 L 157 296.5 L 156.5 299 L 155.5 296 L 154 296.5 L 152.5 294 L 149.5 295 L 148 291 L 142.5 289 L 138 292.5 L 138.5 294 L 136 293 L 135.5 291 Q 134.3 293.3 133 290.5 Q 133.8 288.3 131.5 289 Q 130.3 291.3 129 288.5 L 132 287.5 L 128.5 286 L 126 287 L 125.5 285 L 123 286 Q 124.1 283.3 121.5 284 L 121.5 283 L 124 282.5 L 120.5 281 Q 119.3 283.2 118 280.5 Q 119 276.8 116 278 L 117 280.5 L 113.5 278 L 108 274.5 L 110 273.5 Q 105.3 273.7 104 270.5 L 103 267.5 Q 105.3 266.3 102.5 265 L 101 265.5 L 101.5 267 L 98 266 L 94 258.5 L 95 255 L 99 253.5 L 98.5 252 Q 101.1 251.2 100 254.5 L 101.5 254 L 103 253.5 L 101 253 L 100.5 250 Z M 103 255 L 99 258 L 103 260 L 104 257 L 106 257 L 103 255 Z M 109 260 Q 107 263 110 262 L 109 260 Z M 107 267 L 105 271 L 109 272 Q 110 268 107 267 Z M 116 267 L 115 269 L 118 270 L 116 267 Z M 115 269 L 113 272 L 115 272 L 115 269 Z M 111 274 L 113 277 L 115 276 Q 114 273 111 274 Z M 125 281 L 126 283 Q 127 280 125 281 Z M 146 285 L 144 288 L 146 288 L 146 285 Z M 162 292 L 163 294 Q 164 291 162 292 Z M 166 294 Q 165 296 169 295 L 170 296 Q 171 292 166 294 Z M 166 296 L 167 297 L 168 298 Q 169 295 166 296 Z " /><path fill="rgb(88,54,17)" stroke="rgb(88,54,17)" stroke-width="1" opacity="1" d="M 130.5 276 L 131 278.5 L 130 278.5 L 130.5 276 Z " /><path fill="rgb(88,54,17)" stroke="rgb(88,54,17)" stroke-width="1" opacity="1" d="M 182.5 276 L 183.5 278 L 182.5 276 Z " /><path fill="rgb(88,54,17)" stroke="rgb(88,54,17)" stroke-width="1" opacity="1" d="M 150.5 286 L 153 287.5 L 151.5 287 L 150.5 286 Z " /><path fill="rgb(88,54,17)" stroke="rgb(88,54,17)" stroke-width="1" opacity="1" d="M 254.5 290 L 257 290.5 L 252.5 293 L 252 291 L 254.5 290 Z " /><path fill="rgb(88,54,17)" stroke="rgb(88,54,17)" stroke-width="1" opacity="1" d="M 142.5 293 Q 148.9 293.7 151 298.5 L 147.5 296 L 146.5 297 L 140 294.5 L 142.5 293 Z " /><path fill="rgb(88,54,17)" stroke="rgb(88,54,17)" stroke-width="1" opacity="1" d="M 152.5 297 L 154.5 300 L 152.5 297 Z " /><path fill="rgb(88,54,17)" stroke="rgb(88,54,17)" stroke-width="1" opacity="1" d="M 158.5 300 L 162 301.5 L 160.5 302 L 158.5 300 Z " /></svg>